# xmcd CD database file
#
# Track frame offsets:
#	150
#	13230
#	26170
#	37980
#	51387
#	64219
#	76444
#	88451
#	100441
#	112432
#	125483
#	138073
#	148978
#	161137
#	172322
#
# Disc length: 2462 seconds
#
# Revision: 0
# Processed by: cddbd v1.5.2PL0 Copyright (c) Steve Scherf et al.
# Submitted via: ACXtractor (MTCDDB.DLL V2003.12.21)
#
DISCID=ed099c0f
DTITLE=Mixed - Australian Vintage Country
DYEAR=2011
DGENRE=Country
TTITLE0=Snowy River Riders - Tim McNamara
TTITLE1=Where th Murrumbidgee Wends it Way/ Dusty Rankin
TTITLE2=Sunset Yodel/ Le Garde Twins
TTITLE3=Ghost town Jamboree/ Laurie Croisette
TTITLE4=By the Banks of the Sunny Tweed/ McKean Sisters
TTITLE5=My Fassifern Valley Home - Ron Peters
TTITLE6=King of the Brumbies - Johnny Rivers
TTITLE7=Swiss Sweetheart/ Joan Ridgeway
TTITLE8=Hillbilly Fever/ Smokey Dawson
TTITLE9=Can't Live without You I Know/ Tim McNamara
TTITLE10=Shearin' Time - Le Garde Twins
TTITLE11=Casterway - Johnny Ashcroft
TTITLE12=Valley of Love/ Frankie Ifield
TTITLE13=Once I Was Happy/ Ron Peters
TTITLE14=Sergeant Small - Tex Morton
EXTD=ID3G:   2 YEAR: 2011
EXTT0=
EXTT1=
EXTT2=
EXTT3=
EXTT4=
EXTT5=
EXTT6=
EXTT7=
EXTT8=
EXTT9=
EXTT10=
EXTT11=
EXTT12=
EXTT13=
EXTT14=
PLAYORDER=
